<svg xmlns="http://www.w3.org/2000/svg" width="10" height="10" viewBox="0 0 10 10"><g><g><path fill="#adb1b8" d="M9.675 6.173a.624.624 0 0 0 0-1.097c-.152-.083-.3-.216-.3-.389 0-.172.148-.306.3-.389a.625.625 0 0 0-.3-1.173H7.187a.312.312 0 0 1-.312-.313V.625A.625.625 0 0 0 6.25 0h-.313a.384.384 0 0 0-.364.307c-.184.996-.877 4.068-2.448 4.068H2.5V3.75H.625A.625.625 0 0 0 0 4.375V8.75c0 .345.28.625.625.625H2.5V8.75h1.25C3.75 10 5 10 5 10h4.375a.625.625 0 0 0 .3-1.174c-.152-.083-.3-.216-.3-.389 0-.172.148-.306.3-.388a.625.625 0 0 0 0-1.098c-.152-.083-.3-.216-.3-.389 0-.172.148-.306.3-.389z"/></g></g></svg>