<svg xmlns="http://www.w3.org/2000/svg" width="20" height="16" viewBox="0 0 20 16"><g><g><path fill="#2daae2" d="M19.991 1.894a8.268 8.268 0 0 1-2.354.635A4.057 4.057 0 0 0 19.439.297a8.284 8.284 0 0 1-2.602.98A4.124 4.124 0 0 0 13.844.001c-2.263 0-4.099 1.807-4.099 4.035 0 .316.037.624.107.92A11.697 11.697 0 0 1 1.403.74 3.969 3.969 0 0 0 .848 2.77c0 1.4.725 2.635 1.824 3.358a4.12 4.12 0 0 1-1.857-.505v.051c0 1.955 1.413 3.586 3.288 3.956a4.142 4.142 0 0 1-1.85.07c.52 1.603 2.034 2.77 3.828 2.802a8.308 8.308 0 0 1-5.09 1.727c-.33 0-.658-.019-.978-.056a11.729 11.729 0 0 0 6.283 1.813c7.539 0 11.661-6.148 11.661-11.48 0-.175-.004-.35-.011-.522a8.24 8.24 0 0 0 2.045-2.089z"/></g></g></svg>