<svg xmlns="http://www.w3.org/2000/svg" width="16" height="16" viewBox="0 0 16 16"><g><g><path fill="#fff" d="M16 2v13c0 .553-.548 1-1.1 1H1.1C.548 16 0 15.553 0 15V2c0-.553.548-1 1.1-1H3V.5c0-.277.324-.5.6-.5h1c.276 0 .4.223.4.5V1h2V.5a.5.5 0 0 1 .5-.5h1a.5.5 0 0 1 .5.5V1h2V.5c0-.277.123-.5.4-.5h1c.276 0 .6.223.6.5V1h1.9c.552 0 1.1.447 1.1 1zM5 12H3v2h2zm0-4H3v2h2zm4 4H7v2h2zm0-4H7v2h2zm4 4h-2v2h2zm0-4h-2v2h2zm1-5h-1v.5c0 .276-.324.5-.6.5h-1c-.277 0-.4-.224-.4-.5V3H9v.5a.5.5 0 0 1-.5.5h-1a.5.5 0 0 1-.5-.5V3H5v.5c0 .276-.123.5-.4.5h-1c-.276 0-.6-.224-.6-.5V3H2v3h12z"/></g></g></svg>