<?xml version="1.0" encoding="UTF-8"?><!DOCTYPE svg PUBLIC "-//W3C//DTD SVG 1.1//EN" "http://www.w3.org/Graphics/SVG/1.1/DTD/svg11.dtd"><svg xmlns="http://www.w3.org/2000/svg" xmlns:xlink="http://www.w3.org/1999/xlink"><defs><clipPath id="clip0_442_2335"><path fill="#fff" d="M0 0h16v16H0z"/></clipPath></defs><symbol id="angle-right" viewBox="0 0 192 512"><path d="M187.8 264.5L41 412.5c-4.7 4.7-12.3 4.7-17 0L4.2 392.7c-4.7-4.7-4.7-12.3 0-17L122.7 256 4.2 136.3c-4.7-4.7-4.7-12.3 0-17L24 99.5c4.7-4.7 12.3-4.7 17 0l146.8 148c4.7 4.7 4.7 12.3 0 17z"/></symbol><symbol id="apple" viewBox="0 0 128 128"><g clip-rule="evenodd"><path fill="none" d="M0 0h128v128H0z"/><path d="M118.667 93.913c-2.985 6.653-4.421 9.626-8.267 15.519-5.364 8.226-12.928 18.469-22.309 18.545-8.327.09-10.474-5.457-21.778-5.389-11.304.06-13.661 5.494-22.002 5.411-9.374-.083-16.541-9.325-21.905-17.551C7.399 87.463 5.82 60.481 15.074 46.128c6.583-10.191 16.967-16.151 26.723-16.151 9.928 0 16.174 5.479 24.396 5.479 7.975 0 12.83-5.494 24.314-5.494 8.693 0 17.903 4.764 24.456 12.983-21.486 11.846-18.007 42.711 3.704 50.968zM81.799 20.78C85.974 15.391 89.138 7.775 87.994 0c-6.823.474-14.798 4.839-19.451 10.529-4.242 5.155-7.728 12.825-6.367 20.268 7.459.234 15.157-4.237 19.623-10.017z" fill="#A5B7CB" fill-rule="evenodd"/></g></symbol><symbol id="arrow-left" viewBox="0 0 12 10"><path d="M11.5 5.982H3.515l2.342 2.412c.19.197.19.516 0 .713l-.683.714a.47.47 0 01-.684 0L.14 5.33a.524.524 0 010-.714L4.463.148a.467.467 0 01.683 0l.684.715a.52.52 0 010 .713L3.49 3.988h8.01c.276 0 .5.222.5.498v.997a.5.5 0 01-.5.499z"/></symbol><symbol id="arrow-right" viewBox="0 0 12 10"><path d="M.499 5.982h7.963L6.127 8.394a.519.519 0 000 .713l.681.714a.468.468 0 00.682 0l4.34-4.491a.525.525 0 000-.714L7.517.148a.465.465 0 00-.681 0l-.682.715a.52.52 0 000 .713l2.335 2.412H.499A.498.498 0 000 4.486v.997a.5.5 0 00.499.499z"/></symbol><symbol id="arrow-up" viewBox="0 0 10 6"><path d="M.148 4.471a.463.463 0 000 .68l.715.68a.52.52 0 00.712 0L4.97 2.553l3.423 3.305a.522.522 0 00.715 0l.714-.68a.466.466 0 000-.68L5.327.171a.526.526 0 00-.714 0z"/></symbol><symbol id="calendar"><path fill="#fff" d="M16 2v13c0 .553-.548 1-1.1 1H1.1C.548 16 0 15.553 0 15V2c0-.553.548-1 1.1-1H3V.5c0-.277.324-.5.6-.5h1c.276 0 .4.223.4.5V1h2V.5a.5.5 0 01.5-.5h1a.5.5 0 01.5.5V1h2V.5c0-.277.123-.5.4-.5h1c.276 0 .6.223.6.5V1h1.9c.552 0 1.1.447 1.1 1zM5 12H3v2h2zm0-4H3v2h2zm4 4H7v2h2zm0-4H7v2h2zm4 4h-2v2h2zm0-4h-2v2h2zm1-5h-1v.5c0 .276-.324.5-.6.5h-1c-.277 0-.4-.224-.4-.5V3H9v.5a.5.5 0 01-.5.5h-1a.5.5 0 01-.5-.5V3H5v.5c0 .276-.123.5-.4.5h-1c-.276 0-.6-.224-.6-.5V3H2v3h12z"/></symbol><symbol id="facebook" viewBox="0 0 448 512"><path d="M448 56.7v398.5c0 13.7-11.1 24.7-24.7 24.7H309.1V306.5h58.2l8.7-67.6h-67v-43.2c0-19.6 5.4-32.9 33.5-32.9h35.8v-60.5c-6.2-.8-27.4-2.7-52.2-2.7-51.6 0-87 31.5-87 89.4v49.9h-58.4v67.6h58.4V480H24.7C11.1 480 0 468.9 0 455.3V56.7C0 43.1 11.1 32 24.7 32h398.5c13.7 0 24.8 11.1 24.8 24.7z"/></symbol><symbol id="fb"><path d="M11.258 8.875l.389-2.534H9.214V4.697c0-.693.34-1.369 1.429-1.369h1.105V1.171S10.746 1 9.787 1c-2.002 0-3.31 1.214-3.31 3.41v1.931H4.25v2.534h2.225V15h2.74V8.875h2.042z" fill="#fff"/></symbol><symbol id="google"><path fill="#fff" d="M13 13h22v22H13z"/><path fill="#1e88e5" d="M25.68 20.92l1.008 1.44 1.584-1.152v8.352H30V18.616h-1.44zM22.943 23.745c.625-.574 1.013-1.37 1.013-2.249 0-1.747-1.533-3.168-3.417-3.168-1.602 0-2.972 1.009-3.33 2.453l1.657.421c.165-.664.868-1.146 1.673-1.146.942 0 1.709.646 1.709 1.44 0 .794-.767 1.44-1.709 1.44h-.997v1.728h.997c1.081 0 1.993.751 1.993 1.64 0 .904-.866 1.64-1.931 1.64-.962 0-1.784-.61-1.914-1.418L17 26.802c.262 1.636 1.81 2.87 3.6 2.87 2.007 0 3.64-1.511 3.64-3.368 0-1.023-.504-1.941-1.297-2.559z"/><path fill="#fbc02d" d="M34 42H14l-1-4 1-4h20l1 4z"/><path fill="#4caf50" d="M38 35l4-1V14l-4-1-4 1v20z"/><path d="M34 14l1-4-1-4H9a3 3 0 00-3 3v25l4 1 4-1V14h20z" fill="#1e88e5"/><path fill="#e53935" d="M34 34v8l8-8z"/><path d="M39 6h-5v8h8V9a3 3 0 00-3-3zM9 42h5v-8H6v5a3 3 0 003 3z" fill="#1565c0"/></symbol><symbol id="insta"><g clip-path="url(#clip0_442_2335)"><path d="M8.002 3.899A4.095 4.095 0 003.9 8a4.095 4.095 0 004.102 4.101A4.095 4.095 0 0012.103 8a4.095 4.095 0 00-4.101-4.101zm0 6.767A2.671 2.671 0 015.335 8a2.669 2.669 0 012.667-2.666A2.669 2.669 0 0110.668 8c0 1.47-1.2 2.666-2.666 2.666zm5.225-6.935a.954.954 0 01-.956.957.957.957 0 11.957-.957zm2.717.97c-.06-1.28-.354-2.416-1.292-3.35C13.717.414 12.582.121 11.3.057c-1.32-.075-5.28-.075-6.6 0-1.278.06-2.413.353-3.352 1.289C.41 2.282.12 3.417.056 4.698c-.075 1.321-.075 5.28 0 6.6.06 1.282.354 2.417 1.292 3.352.94.935 2.07 1.228 3.352 1.292 1.32.075 5.28.075 6.6 0 1.281-.06 2.416-.353 3.352-1.292.935-.935 1.228-2.07 1.292-3.352.075-1.32.075-5.275 0-6.596zm-1.706 8.014a2.7 2.7 0 01-1.521 1.52c-1.053.418-3.552.322-4.715.322-1.164 0-3.666.093-4.715-.321a2.7 2.7 0 01-1.521-1.52C1.348 11.661 1.445 9.163 1.445 8c0-1.164-.093-3.666.321-4.715a2.7 2.7 0 011.52-1.52c1.054-.418 3.552-.322 4.716-.322 1.163 0 3.666-.093 4.715.321a2.7 2.7 0 011.52 1.52c.418 1.054.322 3.552.322 4.716 0 1.164.096 3.666-.321 4.715z" fill="#fff"/></g></symbol><symbol id="outlook" viewBox="0 0 128 128"><style>.st14{fill:#29a7eb}.st27{fill:#0464b8}.st30{fill:#1681d7}</style><path class="st27" d="M120.2 22.8h-86V9.1c0-2.3 1.8-4.1 4-4.1h77.9c2.3 0 4.1 1.8 4.1 4.1v13.7z"/><path fill="#0377d4" d="M34.2 22.8h28.7v26.6H34.2z"/><path class="st14" d="M62.9 22.8h28.7v26.6H62.9z"/><path fill="#4fd8ff" d="M91.6 22.8h28.7v26.6H91.6z"/><path class="st30" d="M34.2 49.4h28.7V76H34.2z"/><path fill="#0178d4" d="M62.9 49.4h28.7V76H62.9z"/><path class="st14" d="M91.6 49.4h28.7V76H91.6z"/><path class="st27" d="M62.9 75.9h28.7v26.6H62.9z"/><path class="st30" d="M91.6 75.9h28.7v26.6H91.6z"/><path d="M126.9 69.1l-6.6 3.9V61.8l6.5 3.6c1.5.7 1.5 2.8.1 3.7z" fill="#042071"/><path d="M126.9 69.1l-.6.4-.7.4-5.3 3.1v-.1l-88.4 50.6H121c3.8 0 6.8-3.1 6.8-6.8l.1-49.4c.1.6-.3 1.4-1 1.8z" fill="#168fde"/><g><path class="st14" d="M122 123.5H32.8c-3.8 0-6.8-3.1-6.8-6.8V68.5l96 55z"/></g><path class="st30" d="M59 96.5H6c-3.5 0-6.4-2.9-6.4-6.4V37.9c0-3.5 2.9-6.4 6.4-6.4h53c3.5 0 6.4 2.9 6.4 6.4v52.2c0 3.5-2.8 6.4-6.4 6.4z"/><g><path d="M32.5 82.9c-10.3 0-16.8-7.8-16.8-18.2 0-11 7.1-18.8 17.3-18.8 10.6 0 16.8 7.9 16.8 18.1.1 12.1-7.3 18.9-17.3 18.9zm.4-5.2c6.4 0 10-5.9 10-13.4 0-6.8-3.4-13.1-10-13.1s-10.1 6.2-10.1 13.4 3.6 13.1 10.1 13.1z" fill="#fff"/></g><path d="M65.5 37.3V90.1c0 3.5-2.9 6.4-6.4 6.4H26v5.7h38.4c3.5 0 6.4-2.9 6.4-6.4V43.6c0-3.2-2.3-5.9-5.3-6.3z" opacity=".2"/></symbol><symbol id="play"><path fill="#fff" d="M26.625 13.5c0 7.248-5.877 13.125-13.125 13.125S.375 20.748.375 13.5C.375 6.25 6.252.375 13.5.375S26.625 6.25 26.625 13.5zm-8.762-.82l-6.36-3.867c-.71-.536-1.284-.126-1.284.915v7.543c0 1.044.575 1.45 1.285.915l6.359-3.864c.746-.454.746-1.19 0-1.642z" opacity=".85"/></symbol><symbol id="plus-circle" viewBox="0 0 512 512"><path d="M384 240v32c0 6.6-5.4 12-12 12h-88v88c0 6.6-5.4 12-12 12h-32c-6.6 0-12-5.4-12-12v-88h-88c-6.6 0-12-5.4-12-12v-32c0-6.6 5.4-12 12-12h88v-88c0-6.6 5.4-12 12-12h32c6.6 0 12 5.4 12 12v88h88c6.6 0 12 5.4 12 12zm120 16c0 137-111 248-248 248S8 393 8 256 119 8 256 8s248 111 248 248zm-48 0c0-110.5-89.5-200-200-200S56 145.5 56 256s89.5 200 200 200 200-89.5 200-200z"/></symbol><symbol id="star" viewBox="0 0 13 13"><path d="M6.411-.002c-.418.777-.57 1.66-.885 2.478-.138.421-.197.869-.388 1.271-.14.29-.098.8-.516.82-1.528.022-3.056.008-4.583.006l-.04.177c.234.28.518.504.802.727.698.597 1.454 1.12 2.134 1.74.247.214.563.37.72.676.1.6-.221 1.144-.354 1.709-.237.56-.355 1.162-.558 1.736-.117.557-.441 1.07-.382 1.66.685-.21 1.146-.813 1.716-1.22.811-.578 1.567-1.232 2.365-1.828.45.365.902.73 1.385 1.049.68.486 1.335 1.009 2.007 1.505.182.179.4.313.657.335-.053-.896-.48-1.708-.685-2.57-.2-.55-.348-1.118-.545-1.668-.062-.286-.163-.662.098-.878.375-.358.823-.626 1.202-.982.45-.348.91-.686 1.328-1.078.365-.342.834-.576 1.11-1.01a7.5 7.5 0 00-1.292-.064c-1.156-.006-2.313.011-3.468-.007-.176.017-.26-.17-.318-.307-.258-.717-.426-1.464-.696-2.176-.127-.459-.297-.903-.414-1.364-.092-.264-.132-.593-.4-.737"/></symbol><symbol id="times" viewBox="0 0 320 512"><path d="M207.6 256l107.72-107.72c6.23-6.23 6.23-16.34 0-22.58l-25.03-25.03c-6.23-6.23-16.34-6.23-22.58 0L160 208.4 52.28 100.68c-6.23-6.23-16.34-6.23-22.58 0L4.68 125.7c-6.23 6.23-6.23 16.34 0 22.58L112.4 256 4.68 363.72c-6.23 6.23-6.23 16.34 0 22.58l25.03 25.03c6.23 6.23 16.34 6.23 22.58 0L160 303.6l107.72 107.72c6.23 6.23 16.34 6.23 22.58 0l25.03-25.03c6.23-6.23 6.23-16.34 0-22.58L207.6 256z"/></symbol><symbol id="twitter-square" viewBox="0 0 448 512"><path d="M400 32H48C21.5 32 0 53.5 0 80v352c0 26.5 21.5 48 48 48h352c26.5 0 48-21.5 48-48V80c0-26.5-21.5-48-48-48zm-48.9 158.8c.2 2.8.2 5.7.2 8.5 0 86.7-66 186.6-186.6 186.6-37.2 0-71.7-10.8-100.7-29.4 5.3.6 10.4.8 15.8.8 30.7 0 58.9-10.4 81.4-28-28.8-.6-53-19.5-61.3-45.5 10.1 1.5 19.2 1.5 29.6-1.2-30-6.1-52.5-32.5-52.5-64.4v-.8c8.7 4.9 18.9 7.9 29.6 8.3a65.447 65.447 0 01-29.2-54.6c0-12.2 3.2-23.4 8.9-33.1 32.3 39.8 80.8 65.8 135.2 68.6-9.3-44.5 24-80.6 64-80.6 18.9 0 35.9 7.9 47.9 20.7 14.8-2.8 29-8.3 41.6-15.8-4.9 15.2-15.2 28-28.8 36.1 13.2-1.4 26-5.1 37.8-10.2-8.9 13.1-20.1 24.7-32.9 34z"/></symbol><symbol id="youtube" viewBox="0 0 576 512"><!--!Font Awesome Free 6.7.2 by @fontawesome - https://fontawesome.com License - https://fontawesome.com/license/free Copyright 2025 Fonticons, Inc.--><path d="M549.7 124.1c-6.3-23.7-24.8-42.3-48.3-48.6C458.8 64 288 64 288 64S117.2 64 74.6 75.5c-23.5 6.3-42 24.9-48.3 48.6C14.9 167 14.9 256.4 14.9 256.4s0 89.4 11.4 132.3c6.3 23.7 24.8 41.5 48.3 47.8C117.2 448 288 448 288 448s170.8 0 213.4-11.5c23.5-6.3 42-24.2 48.3-47.8 11.4-42.9 11.4-132.3 11.4-132.3s0-89.4-11.4-132.3zM232.2 337.6V175.2l142.7 81.2-142.7 81.2z"/></symbol></svg>