<svg xmlns="http://www.w3.org/2000/svg" viewBox="0 0 13 13"><path d="M6.411-.002c-.418.777-.57 1.66-.885 2.478-.138.421-.197.869-.388 1.271-.14.29-.098.8-.516.82-1.528.022-3.056.008-4.583.006l-.04.177c.234.28.518.504.802.727.698.597 1.454 1.12 2.134 1.74.247.214.563.37.72.676.1.6-.221 1.144-.354 1.709-.237.56-.355 1.162-.558 1.736-.117.557-.441 1.07-.382 1.66.685-.21 1.146-.813 1.716-1.22.811-.578 1.567-1.232 2.365-1.828.45.365.902.73 1.385 1.049.68.486 1.335 1.009 2.007 1.505.182.179.4.313.657.335-.053-.896-.48-1.708-.685-2.57-.2-.55-.348-1.118-.545-1.668-.062-.286-.163-.662.098-.878.375-.358.823-.626 1.202-.982.45-.348.91-.686 1.328-1.078.365-.342.834-.576 1.11-1.01a7.5 7.5 0 0 0-1.292-.064c-1.156-.006-2.313.011-3.468-.007-.176.017-.26-.17-.318-.307-.258-.717-.426-1.464-.696-2.176-.127-.459-.297-.903-.414-1.364-.092-.264-.132-.593-.4-.737"/></svg>