<svg xmlns="http://www.w3.org/2000/svg" width="13" height="13" viewBox="0 0 13 13"><g><g><path fill="#c82c42" d="M6.411-.002c-.418.777-.57 1.66-.885 2.478-.138.421-.197.868-.388 1.271-.14.29-.098.8-.516.82-1.528.021-3.056.008-4.583.005l-.04.178c.234.28.518.504.802.727.698.596 1.454 1.12 2.134 1.74.247.214.563.37.72.676.1.6-.221 1.144-.354 1.709-.237.56-.355 1.162-.558 1.736-.116.558-.441 1.07-.382 1.66.685-.21 1.146-.814 1.716-1.22.811-.578 1.567-1.232 2.365-1.829.45.366.902.731 1.385 1.05.68.486 1.335 1.009 2.007 1.505.182.179.4.313.657.335-.053-.896-.48-1.708-.685-2.57-.2-.55-.348-1.118-.545-1.667-.062-.287-.163-.663.098-.879.375-.358.823-.626 1.202-.982.45-.349.91-.686 1.328-1.078.365-.342.834-.576 1.11-1.01a7.539 7.539 0 0 0-1.292-.065c-1.156-.005-2.313.012-3.468-.006-.176.017-.26-.17-.318-.307-.258-.717-.426-1.464-.696-2.176-.127-.458-.297-.903-.414-1.364-.092-.264-.132-.593-.4-.737"/></g></g></svg>