<svg xmlns="http://www.w3.org/2000/svg" width="16" height="16" viewBox="0 0 16 16"><g><g><path fill="#6bc353" d="M16 4v11a1 1 0 0 1-1 1H1a1 1 0 0 1-1-1V4a1 1 0 0 1 1-1h4.586L4.293 1.707A1 1 0 1 1 5.707.293L8 2.586 10.293.293a1 1 0 1 1 1.414 1.414L10.414 3H15a1 1 0 0 1 1 1zm-4 1.5a.5.5 0 0 0-.5-.5h-9a.5.5 0 0 0-.5.5v8a.5.5 0 0 0 .5.5h9a.5.5 0 0 0 .5-.5zm3 3a.5.5 0 0 0-.5-.5h-1a.5.5 0 0 0-.5.5v1a.5.5 0 0 0 .5.5h1a.5.5 0 0 0 .5-.5zm0-3a.5.5 0 0 0-.5-.5h-1a.5.5 0 0 0-.5.5v1a.5.5 0 0 0 .5.5h1a.5.5 0 0 0 .5-.5z"/></g></g></svg>